<svg xmlns="http://www.w3.org/2000/svg" aria-hidden="true" style="position:absolute;width:0;height:0;overflow:hidden">
  <defs>
    <symbol id="icon-button-prev" viewBox="0 0 32 32">
<path d="M26 1.999c0 0.557-0.231 1.111-0.683 1.506l-14.28 12.495 14.28 12.495c0.831 0.727 0.916 1.991 0.188 2.822s-1.991 0.916-2.822 0.188l-16-14c-0.434-0.38-0.683-0.928-0.683-1.505s0.249-1.125 0.683-1.505l16-14c0.831-0.727 2.095-0.643 2.822 0.188 0.332 0.379 0.495 0.849 0.495 1.316z"></path>
</symbol>
    <symbol id="icon-button-next" viewBox="0 0 32 32">
<path d="M6 1.999c0 0.557 0.231 1.111 0.683 1.506l14.28 12.495-14.28 12.495c-0.831 0.727-0.916 1.991-0.188 2.822s1.991 0.916 2.822 0.188l16-14c0.434-0.38 0.683-0.928 0.683-1.505s-0.249-1.125-0.683-1.505l-16-14c-0.831-0.727-2.095-0.643-2.822 0.188-0.332 0.379-0.495 0.849-0.495 1.316z"></path>
</symbol>
  </defs>
</svg>
